<svg xmlns="http://www.w3.org/2000/svg" viewBox="0 0 128 128" role="img" aria-labelledby="title desc">
  <title id="title">InterviewCoach</title>
  <desc id="desc">InterviewCoach logo with a rounded speech bubble and interview waveform mark.</desc>
  <defs>
    <linearGradient id="bg" x1="14" y1="14" x2="114" y2="114" gradientUnits="userSpaceOnUse">
      <stop offset="0" stop-color="#0e3f82" />
      <stop offset="0.46" stop-color="#1678d2" />
      <stop offset="1" stop-color="#39bbff" />
    </linearGradient>
    <linearGradient id="glass" x1="28" y1="26" x2="96" y2="94" gradientUnits="userSpaceOnUse">
      <stop offset="0" stop-color="#ffffff" stop-opacity="0.98" />
      <stop offset="1" stop-color="#d9efff" stop-opacity="0.92" />
    </linearGradient>
    <linearGradient id="wave" x1="40" y1="42" x2="86" y2="82" gradientUnits="userSpaceOnUse">
      <stop offset="0" stop-color="#1d5cff" />
      <stop offset="1" stop-color="#18b7ff" />
    </linearGradient>
    <linearGradient id="sheen" x1="22" y1="16" x2="94" y2="92" gradientUnits="userSpaceOnUse">
      <stop offset="0" stop-color="#ffffff" stop-opacity="0.30" />
      <stop offset="1" stop-color="#ffffff" stop-opacity="0" />
    </linearGradient>
    <filter id="shadow" x="-20%" y="-20%" width="140%" height="140%">
      <feDropShadow dx="0" dy="10" stdDeviation="10" flood-color="#041021" flood-opacity="0.20" />
    </filter>
  </defs>

  <rect x="8" y="8" width="112" height="112" rx="30" fill="#09264f" />
  <rect x="10" y="10" width="108" height="108" rx="28" fill="url(#bg)" />
  <path d="M22 18h52c-11 9-18 21-18 34 0 14 7 25 18 34H22c-8 0-14-6-14-14V32c0-8 6-14 14-14Z" fill="url(#sheen)" />
  <path d="M94 14c10 15 15 30 15 47 0 20-8 36-24 49h13c12 0 22-10 22-22V36c0-12-10-22-22-22H94Z" fill="#072240" fill-opacity="0.14" />

  <g filter="url(#shadow)">
    <path d="M30 34c0-7.18 5.82-13 13-13h42c7.18 0 13 5.82 13 13v30c0 7.18-5.82 13-13 13H62.5L48 89.5c-1.45 1.25-3.75.23-3.75-1.7V77H43c-7.18 0-13-5.82-13-13V34Z" fill="url(#glass)" />
    <rect x="41" y="44" width="6.5" height="22" rx="3.25" fill="#123d7b" />
    <path d="M56 43h9.8c4.95 0 8.95 4.01 8.95 8.95 0 4.95-4 8.95-8.95 8.95H56v-5.6h9.2c1.9 0 3.45-1.55 3.45-3.45s-1.55-3.45-3.45-3.45H56V43Z" fill="url(#wave)" />
    <path d="M55 65.8h5.8c2.3 0 4.16 1.86 4.16 4.16v4.94H55V65.8Z" fill="#19b4ff" />
    <rect x="76" y="43.5" width="6.5" height="31.5" rx="3.25" fill="#123d7b" />
    <circle cx="79.25" cy="34.5" r="5.25" fill="#ffd05f" />
    <path d="M87.5 45.5h4.2c4.03 0 7.3 3.27 7.3 7.3 0 4.03-3.27 7.3-7.3 7.3h-4.2v-4.9h3.8c1.33 0 2.4-1.08 2.4-2.4s-1.07-2.4-2.4-2.4h-3.8v-4.9Z" fill="#0f8de2" />
  </g>

  <rect x="16" y="16" width="96" height="96" rx="24" fill="none" stroke="#ffffff" stroke-opacity="0.16" stroke-width="2" />
</svg>
